<svg id="svg" version="1.1" width="400" height="400" viewBox="0 0 400 400" xmlns="http://www.w3.org/2000/svg" xmlns:xlink="http://www.w3.org/1999/xlink" ><g id="svgg"><path id="path0" d="M192.945 9.226 C 190.555 9.786,154.754 30.605,152.816 32.562 C 148.492 36.929,148.632 35.361,148.632 79.318 C 148.632 120.081,148.561 118.572,150.551 119.876 C 152.519 121.166,153.287 120.811,173.169 109.436 C 194.077 97.474,194.147 97.440,197.882 97.440 C 201.790 97.440,200.699 96.860,243.265 121.605 C 285.601 146.216,284.818 145.707,286.958 150.026 L 288.261 152.655 288.261 200.342 L 288.261 248.029 287.094 250.399 C 285.061 254.529,285.852 254.023,243.248 278.453 C 202.174 302.006,201.998 302.101,198.762 302.439 C 194.656 302.868,195.287 303.195,152.577 278.520 C 112.694 255.479,110.933 254.380,109.186 251.424 C 106.978 247.688,107.166 255.909,106.973 155.044 L 106.796 63.134 105.806 62.282 C 103.772 60.533,102.770 60.861,92.990 66.480 C 30.302 102.501,32.655 101.035,30.504 105.415 L 29.479 107.502 29.479 200.177 L 29.479 292.851 30.518 294.969 C 32.619 299.251,28.957 297.008,113.327 345.678 C 195.412 393.030,192.705 391.549,197.105 391.505 C 200.871 391.468,201.185 391.295,280.886 345.278 C 364.853 296.799,360.845 299.259,363.006 294.869 L 364.166 292.513 364.166 200.177 L 364.166 107.840 362.990 105.451 C 362.339 104.128,361.078 102.348,360.165 101.462 C 358.163 99.519,203.531 10.175,200.730 9.343 C 198.808 8.772,195.122 8.717,192.945 9.226 M192.577 179.631 C 186.627 181.688,180.239 186.454,178.374 190.227 L 177.052 192.902 177.052 199.805 C 177.052 209.812,178.191 211.988,185.769 216.456 C 195.132 221.978,197.988 222.080,206.481 217.198 C 215.064 212.264,216.744 209.423,216.761 199.809 C 216.778 190.201,215.093 187.343,206.528 182.454 C 200.264 178.878,196.787 178.175,192.577 179.631 " stroke="none" fill="#2b3588" fill-rule="evenodd"></path><path id="path1" d="" stroke="none" fill="#3e494c" fill-rule="evenodd"></path><path id="path2" d="M176.661 199.823 C 176.661 202.445,176.716 203.517,176.784 202.207 C 176.852 200.896,176.852 198.751,176.784 197.440 C 176.716 196.130,176.661 197.202,176.661 199.823 " stroke="none" fill="#526d77" fill-rule="evenodd"></path><path id="path3" d="M180.740 186.320 L 179.523 187.643 180.847 186.427 C 181.575 185.758,182.171 185.162,182.171 185.103 C 182.171 184.833,181.872 185.087,180.740 186.320 M180.759 213.416 C 181.418 214.095,182.036 214.651,182.133 214.651 C 182.230 214.651,181.771 214.095,181.112 213.416 C 180.453 212.736,179.835 212.180,179.738 212.180 C 179.641 212.180,180.100 212.736,180.759 213.416 M195.675 220.906 C 196.209 220.987,197.083 220.987,197.617 220.906 C 198.151 220.825,197.714 220.759,196.646 220.759 C 195.578 220.759,195.141 220.825,195.675 220.906 " stroke="none" fill="#6497ac" fill-rule="evenodd"></path><path id="path4" d="M192.233 146.080 C 188.355 147.502,153.507 167.987,151.662 169.929 C 147.656 174.144,147.573 174.756,147.573 199.823 C 147.573 230.950,145.150 226.817,172.654 242.613 C 199.130 257.818,194.415 257.841,221.258 242.378 C 241.628 230.644,242.535 230.004,244.408 226.050 L 245.543 223.654 245.543 199.823 L 245.543 175.993 244.446 173.698 C 242.450 169.520,242.134 169.293,222.771 158.124 C 199.760 144.850,201.526 145.724,197.373 145.563 C 194.734 145.461,193.614 145.573,192.233 146.080 M200.301 179.172 C 205.703 180.579,213.392 186.110,215.469 190.083 L 216.593 192.233 216.593 199.823 L 216.593 207.414 215.372 209.666 C 212.752 214.500,203.977 220.188,198.119 220.851 C 191.752 221.571,180.700 215.152,177.811 209.056 L 176.699 206.708 176.699 199.823 L 176.699 192.939 177.811 190.591 C 181.206 183.426,193.218 177.327,200.301 179.172 " stroke="none" fill="#71cbf3" fill-rule="evenodd"></path></g></svg>