<svg id="svg" version="1.1" width="400" height="400" viewBox="0 0 400 400" xmlns="http://www.w3.org/2000/svg" xmlns:xlink="http://www.w3.org/1999/xlink" ><g id="svgg"><path id="path0" d="M192.041 7.127 C 189.645 7.688,153.749 28.562,151.805 30.525 C 147.470 34.903,147.611 33.331,147.611 77.405 C 147.611 118.276,147.539 116.763,149.535 118.071 C 151.508 119.363,152.278 119.008,172.212 107.603 C 193.176 95.609,193.246 95.575,196.991 95.575 C 200.909 95.575,199.816 94.993,242.495 119.804 C 284.943 144.480,284.158 143.970,286.304 148.300 L 287.611 150.937 287.611 198.750 L 287.611 246.563 286.441 248.940 C 284.402 253.081,285.195 252.574,242.478 277.069 C 201.295 300.684,201.119 300.779,197.874 301.118 C 193.757 301.548,194.389 301.876,151.566 277.136 C 111.577 254.034,109.812 252.931,108.060 249.968 C 105.846 246.222,106.035 254.464,105.841 153.332 L 105.664 61.178 104.671 60.323 C 102.631 58.569,101.627 58.899,91.821 64.533 C 28.967 100.649,31.326 99.179,29.169 103.571 L 28.142 105.664 28.142 198.584 L 28.142 291.504 29.184 293.628 C 31.290 297.921,27.618 295.673,112.212 344.472 C 194.515 391.949,191.801 390.464,196.212 390.421 C 199.988 390.384,200.303 390.210,280.216 344.071 C 364.405 295.463,360.387 297.929,362.554 293.528 L 363.717 291.165 363.717 198.584 L 363.717 106.003 362.537 103.607 C 361.885 102.281,360.620 100.495,359.706 99.608 C 357.698 97.659,202.656 8.078,199.847 7.244 C 197.919 6.672,194.224 6.616,192.041 7.127 M191.672 177.984 C 185.707 180.046,179.302 184.825,177.432 188.609 L 176.106 191.291 176.106 198.212 C 176.106 208.245,177.248 210.426,184.847 214.907 C 194.234 220.443,197.098 220.546,205.613 215.651 C 214.219 210.704,215.903 207.856,215.921 198.216 C 215.938 188.582,214.248 185.716,205.660 180.814 C 199.379 177.229,195.893 176.524,191.672 177.984 " stroke="none" fill="#2b3588" fill-rule="evenodd"></path><path id="path2" d="M191.327 144.344 C 187.439 145.770,152.499 166.309,150.648 168.256 C 146.633 172.483,146.549 173.096,146.549 198.230 C 146.549 229.439,144.120 225.296,171.697 241.133 C 198.243 256.379,193.515 256.402,220.429 240.898 C 240.854 229.132,241.763 228.491,243.641 224.527 L 244.779 222.124 244.779 198.230 L 244.779 174.336 243.679 172.035 C 241.678 167.846,241.361 167.619,221.947 156.420 C 198.874 143.111,200.645 143.987,196.481 143.826 C 193.835 143.723,192.712 143.836,191.327 144.344 M199.417 177.523 C 204.834 178.934,212.543 184.480,214.625 188.464 L 215.752 190.619 215.752 198.230 L 215.752 205.841 214.528 208.099 C 211.901 212.945,203.103 218.649,197.229 219.313 C 190.845 220.036,179.763 213.599,176.868 207.487 L 175.752 205.133 175.752 198.230 L 175.752 191.327 176.868 188.973 C 180.271 181.789,192.315 175.674,199.417 177.523 " stroke="none" fill="#71cbf3" fill-rule="evenodd"></path></g></svg>